<svg id="Layer_1" xmlns="http://www.w3.org/2000/svg" viewBox="0 0 79.8 373.7"><style>.st0{fill:none;stroke:#fff;stroke-width:2.4405;stroke-miterlimit:10}.st1{fill:#fff}</style><path class="st0" d="M1.2 100.5h10.3v272H1.2z"/><path class="st1" d="M1.2 135h10.3v34H1.2zm0 68h10.3v34H1.2zm0 68h10.3v34H1.2zm0 68h10.3v34H1.2z"/><path class="st0" d="M11.5 100.5h10.3v272H11.5z"/><path class="st1" d="M11.5 304h10.3v34H11.5zm0-68h10.3v34H11.5zm0-68h10.3v34H11.5zm0-68h10.3v34H11.5z"/><path d="M45.4 39.8h11.1v11.1H45.4z"/><path class="st1" d="M45.4 28.7h11.1v11.1H45.4z"/><path d="M45.4 17.6h11.1v11.1H45.4z"/><path class="st1" d="M45.4 6.5h11.1v11.1H45.4z"/><path d="M56.6 6.5h11.1v11.1H56.6z"/><path class="st1" d="M56.6 17.6h11.1v11.1H56.6z"/><path d="M56.6 28.7h11.1v11.1H56.6z"/><path class="st1" d="M56.6 39.8h11.1v11.1H56.6z"/><path d="M67.7 39.8h11.1v11.1H67.7z"/><path class="st1" d="M67.7 28.7h11.1v11.1H67.7z"/><path d="M67.7 17.6h11.1v11.1H67.7z"/><path class="st1" d="M67.7 6.5h11.1v11.1H67.7z"/><path d="M13.2 6.5h11.1v11.1H13.2z"/><path class="st1" d="M13.2 17.6h11.1v11.1H13.2z"/><path d="M13.2 28.7h11.1v11.1H13.2z"/><path class="st1" d="M13.2 39.8h11.1v11.1H13.2z"/><path d="M24.4 39.8h11.1v11.1H24.4z"/><path class="st1" d="M24.4 28.7h11.1v11.1H24.4z"/><path d="M24.4 17.6h11.1v11.1H24.4z"/><path class="st1" d="M24.4 6.5h11.1v11.1H24.4z"/><path d="M35.5 6.5h11.1v11.1H35.5z"/><path class="st1" d="M35.5 17.6h11.1v11.1H35.5z"/><path d="M35.5 28.7h11.1v11.1H35.5z"/><path class="st1" d="M35.5 39.8h11.1v11.1H35.5z"/><path d="M12.1 50.9h66.6V6.5H12.1v44.4zM13 7.3h65v42.8H13V7.3z" fill="none" stroke="#fff" stroke-width="2" stroke-miterlimit="10"/><path class="st1" d="M10.5 1.8h2.8V100h-2.8z"/><circle class="st1" cx="11.9" cy="2" r="2"/></svg>