<svg id="Layer_1" xmlns="http://www.w3.org/2000/svg" viewBox="0 0 196.2 74.3"><style>.st0{fill:#f68838}</style><path class="st0" d="M57.9 48.4c-.4-.6-.9-1.2-1.5-1.6-.6-.4-1.3-.7-2.2-.8.2.8.4 1.5.7 2.1.2.6.5 1.1.8 1.6.3.5.6 1 1 1.5s.8 1 1.5 1.6c.4-.8.5-1.5.4-2.3-.1-.7-.3-1.4-.7-2.1M45.1 64.6c.5.3 1.1.4 1.7.4.6 0 1.2-.1 1.7-.4.5-.3 1-.7 1.3-1.4-.7-.3-1.2-.5-1.7-.6-.5-.1-.9-.2-1.4-.1-.4 0-.9 0-1.4.2-.5.1-1 .3-1.7.6.5.6 1 1 1.5 1.3m11.6-6.2c-.4.5-.7 1-1 1.5-.3.5-.6 1-.8 1.6-.2.6-.5 1.2-.7 2.1.9 0 1.6-.3 2.2-.8.6-.4 1.1-1 1.5-1.6.4-.6.6-1.4.7-2.1.1-.7 0-1.5-.4-2.3-.7.6-1.1 1.1-1.5 1.6m-3.2.2c.2-.4.3-.8.3-1.3s-.2-1-.7-1.4c-.6.3-.9.5-1.2.7-.3.2-.5.5-.6.7-.1.3-.2.5-.3.9-.1.4-.1.8 0 1.4.6.2 1.1.1 1.6-.1.3-.2.6-.5.9-.9"/><path class="st0" d="M55.7 59.9c.3-.5.5-1.1.5-1.7 0-.6-.1-1.2-.5-1.8-.6.4-1 .8-1.3 1.2-.3.4-.6.7-.8 1.1-.2.4-.4.8-.6 1.3-.1.5-.3 1-.3 1.7.7.1 1.3-.1 1.9-.5.4-.3.8-.8 1.1-1.3m-3.8-5.1c0-2.8-2.3-5.1-5.1-5.1s-5.1 2.3-5.1 5.1 2.3 5.1 5.1 5.1 5.1-2.3 5.1-5.1"/><path class="st0" d="M59.2 42.4c-6.8-6.8-18-6.8-24.8 0-6.8 6.8-6.8 18 0 24.8 6.8 6.8 18 6.8 24.8 0 6.9-6.8 6.9-18 0-24.8m1.4 14.8c-.7.7-1.1 1.4-1.6 2-.4.6-.8 1.3-1.2 1.9-.4.6-.7 1.3-1.1 2-.3.7-.7 1.4-1 2.4 1-.1 1.8-.5 2.5-1.1.7-.5 1.2-1.2 1.7-1.9-2.6 4.3-7.2 7.3-12.5 7.5.7-.1 1.3-.2 1.9-.5.8-.3 1.6-.8 2.2-1.6-.9-.2-1.8-.3-2.5-.3-.8 0-1.5-.1-2.3-.1-.7 0-1.5 0-2.3.1-.6.1-1.4.1-2.4.4.6.8 1.4 1.3 2.2 1.6.6.3 1.3.4 1.9.5-5.3-.2-9.9-3.2-12.5-7.5.4.7 1 1.4 1.7 1.9s1.5 1 2.5 1.1c-.3-.9-.6-1.7-1-2.4-.3-.7-.7-1.3-1.1-2-.4-.6-.8-1.3-1.2-1.9-.4-.6-.9-1.3-1.6-2-.4.9-.4 1.8-.3 2.7.1.8.4 1.6.8 2.4-1.3-2.2-2-4.8-2-7.5s.7-5.3 2-7.5c-.4.7-.7 1.5-.8 2.4-.1.9-.1 1.8.3 2.7.7-.7 1.1-1.4 1.6-2 .4-.7.8-1.3 1.2-1.9.4-.6.7-1.3 1.1-2 .3-.7.7-1.4 1-2.4-1 .1-1.8.5-2.5 1.1-.7.5-1.2 1.2-1.7 1.9 2.6-4.3 7.2-7.3 12.5-7.5-.7.1-1.3.2-1.9.5-.8.3-1.6.8-2.2 1.6.9.2 1.8.3 2.5.3.8.1 1.5.1 2.3.1.7 0 1.5 0 2.3-.1.8-.1 1.6-.1 2.5-.3-.6-.8-1.4-1.3-2.2-1.6-.6-.3-1.3-.4-1.9-.5 5.3.2 9.9 3.2 12.5 7.5-.4-.7-1-1.4-1.7-1.9s-1.5-1-2.5-1.1c.3.9.6 1.7 1 2.4.3.7.7 1.3 1.1 2 .4.6.8 1.3 1.2 1.9.4.6.9 1.3 1.6 2 .4-.9.4-1.8.3-2.7-.1-.8-.4-1.6-.8-2.4 1.3 2.2 2 4.8 2 7.5s-.7 5.3-2 7.5c.4-.7.7-1.5.8-2.4.1-1 0-1.9-.4-2.8"/><path class="st0" d="M53.5 51c.2.4.5.7.8 1.1.3.4.7.7 1.3 1.2.4-.6.6-1.2.5-1.8 0-.6-.2-1.2-.5-1.7s-.7-1-1.2-1.3c-.5-.3-1.1-.5-1.9-.4.1.7.2 1.3.3 1.7.3.4.4.8.7 1.2"/><path class="st0" d="M46.8 35.3C36 35.3 27.3 44 27.3 54.8S36 74.3 46.8 74.3s19.5-8.7 19.5-19.5-8.7-19.5-19.5-19.5"/><path class="st0" d="M46.8 62.4c.4 0 .9-.1 1.3-.4.4-.3.7-.7.9-1.3-.5-.4-.9-.6-1.3-.7-.3-.1-.6-.2-.9-.2-.3 0-.6.1-.9.2-.3.1-.7.3-1.3.7.2.6.5 1 .9 1.3.4.3.9.5 1.3.4m4.5-10.2c.1.3.3.5.6.7.3.2.6.5 1.2.7.5-.5.6-.9.7-1.4 0-.5-.1-.9-.3-1.3-.2-.4-.6-.7-1-.9-.4-.2-.9-.3-1.6-.1-.1.6 0 1.1 0 1.4.1.4.2.7.4.9M40.2 51c-.2.4-.3.8-.3 1.3s.2 1 .7 1.4c.6-.3.9-.5 1.2-.7.3-.2.5-.5.6-.7.1-.3.2-.5.3-.9.1-.4.1-.8 0-1.4-.6-.2-1.1-.1-1.6.1-.3.2-.7.5-.9.9m6.6-3.9c-.4 0-.9.1-1.3.4-.4.3-.7.7-.9 1.3.5.4.9.6 1.3.7.3.1.6.2.9.2.3 0 .6-.1.9-.2.3-.1.7-.3 1.3-.7-.2-.6-.5-1-.9-1.3-.4-.2-.8-.4-1.3-.4m-4.4 10.2c-.1-.3-.3-.5-.6-.7-.3-.2-.6-.5-1.2-.7-.5.5-.6.9-.7 1.4 0 .5.1.9.3 1.3.2.4.6.7 1 .9.4.2.9.3 1.6.1.1-.6 0-1.1 0-1.4-.1-.3-.2-.6-.4-.9"/><path class="st0" d="M48.6 45c-.5-.3-1.1-.4-1.7-.4-.6 0-1.2.1-1.7.4-.5.3-1 .7-1.3 1.4.7.3 1.2.5 1.7.6.5.1.9.2 1.4.1.4 0 .9 0 1.4-.2.5-.1 1-.3 1.7-.6-.5-.6-1-1-1.5-1.3m-3.6-.5c.6.1 1.2.1 1.8.1.6 0 1.2 0 1.8-.1.6-.1 1.3-.2 2.1-.5-.4-.7-1.1-1.2-1.8-1.5-.7-.3-1.4-.5-2.2-.5-.7 0-1.5.2-2.2.5-.7.3-1.3.8-1.8 1.5.3.1.6.2.9.2.6.2 1 .2 1.4.3m-7 5.2c-.3.5-.5 1.1-.5 1.7 0 .6.1 1.2.5 1.8.6-.4 1-.8 1.3-1.2.3-.4.6-.7.8-1.1.2-.4.4-.8.6-1.3.1-.5.3-1 .3-1.7-.7-.1-1.3.1-1.9.5-.4.3-.8.8-1.1 1.3m0 10.2c-.3-.5-.6-1-1-1.5s-.8-1-1.5-1.6c-.4.8-.5 1.5-.4 2.3.1.7.3 1.5.7 2.1.4.6.9 1.2 1.5 1.6.6.4 1.3.7 2.2.8-.2-.8-.4-1.5-.7-2.1-.2-.6-.5-1.1-.8-1.6m2.2-1.3c-.2-.4-.5-.7-.8-1.1-.3-.4-.7-.7-1.3-1.2-.4.6-.6 1.2-.5 1.8 0 .6.2 1.2.5 1.7s.7 1 1.2 1.3c.5.3 1.1.5 1.9.4-.1-.7-.2-1.3-.3-1.7-.3-.4-.5-.8-.7-1.2"/><path class="st0" d="M37 51.2c.4-.5.7-1 1-1.5.3-.5.6-1 .8-1.6.2-.6.5-1.2.7-2.1-.9 0-1.6.3-2.2.8-.6.4-1.1 1-1.5 1.6-.4.6-.6 1.4-.7 2.1-.1.7 0 1.5.4 2.3.7-.6 1.1-1.1 1.5-1.6M46.8 65c-.6 0-1.2 0-1.8.1-.6.1-1.3.2-2.1.5.4.7 1.1 1.2 1.8 1.5.7.3 1.4.5 2.2.5.7 0 1.5-.2 2.2-.5.7-.3 1.3-.8 1.8-1.5-.8-.3-1.5-.4-2.1-.5-.8-.1-1.4-.1-2-.1m129.9-29.7c-10.8 0-19.5 8.7-19.5 19.5s8.7 19.5 19.5 19.5 19.5-8.7 19.5-19.5-8.7-19.5-19.5-19.5m0 4.2h.6-.8.2"/><path class="st0" d="M174.4 30c-2.3-1.8-6.1-3.4-12.6-3.4h-40.6s-12.6-1.2-18.1-3.9c-.3 0-1.6 9.2-9.7 12.1l6.7-15.2c.5-1.1.4-2.1-.1-2.4-.5-.2-1.4.4-1.8 1.5l-.4.9h-2.9L94 24l-2.7 3.4c-.4-.3-.9-.6-1.3-.8-.7-.4-1.2-1-1.8-1.4-.6-.5-1.2-.9-1.8-1.4-1.2-.9-2.4-1.7-3.2-2.9-.1-.1 0-.5 0-.7 0-.3-.9-1.4-1.4-2.2l.8.2c-.2-.4-.2-.4 0-.7.2-.2 0-.7.3-.7.7 0 1.3.4 2 .4.8 0 .3-1.3.7-1.5.4-.2.4-.2.4-.7 0-.1.2-.1.2-.1.2-.2.2-.2.2-.5 0-.5.1-.5.5-.5.3 0 .7-.1.6-.5 0-.6-.6-1.4-.3-2 .1-.3 0-.5.1-.8.2-.3 0-.7 0-1 .4 0 .7 0 1-.3H92l-2.3-1.9c-.5-4.1-4-7.4-8.4-7.4-4.7 0-8.5 3.8-8.5 8.5 0 2.2.8 4.1 2.1 5.6-.1.1-.1.2-.1.3-.4.1-.7.1-1.1.2-.3 0-.6.3-.9.5-.3.2-.8.3-1.1.5-.5.2-.9.9-1.3 1.3-.5.7-1.1 1.4-1.5 2.1-.8 1.4-1.4 3-2.1 4.5-.6 1.3-1.2 2.5-1.6 3.8-.2.7-.5 1.4-.6 2.2-.1.5-.2 1.1-.2 1.6-2.1-2.2-4.1-5.3-5-9.9 0 0-28.3-5.1-59.3 20.8-.3.6 0 14.1 0 14.1S10.8 65.5 21 66.3h3.7v-.1l-.6-1.2c0-.1-.1-.2-.1-.2-.2-.3-.3-.7-.4-1.1 0-.1-.1-.2-.1-.3-.1-.4-.3-.8-.4-1.2 0-.1 0-.1-.1-.2-.1-.5-.3-.9-.4-1.4v-.2l-.3-1.2c0-.1-.1-.3-.1-.4-.1-.3-.1-.6-.1-.9 0-.2 0-.3-.1-.5 0-.3-.1-.6-.1-.9V53c0-.3 0-.5.1-.8 0-.2.1-.4.1-.6 0-.2 0-.4.1-.5 0-.3.1-.5.1-.8 0-.1 0-.2.1-.4.1-.3.1-.6.2-.9 0-.1 0-.1.1-.2.1-.3.2-.7.3-1v-.1c.1-.3.2-.7.3-1v-.1c.1-.3.2-.7.4-1 .1-.1.1-.3.2-.4l2.1-4c4.4-6.8 12.1-11.3 20.8-11.3S63 34.4 67.4 41.2l2.1 4c.1.1.1.3.2.4.1.3.3.7.4 1v.1c.1.3.2.7.3 1v.1c.1.3.2.7.3 1v.2c.1.3.1.6.2.9 0 .1 0 .2.1.3 0 .3.1.5.1.8 0 .2 0 .3.1.5 0 .2.1.4.1.7 0 .3 0 .5.1.8v3.5c0 .3-.1.6-.1.9 0 .2 0 .3-.1.5 0 .3-.1.6-.1.9 0 .1 0 .3-.1.4l-.3 1.2v.2c-.1.5-.3.9-.4 1.4v.1c-.1.4-.3.8-.4 1.2 0 .1-.1.2-.1.3-.1.4-.3.7-.4 1.1 0 .1-.1.2-.1.2l-.6 1.2v.1h86.1c-1.8-3.5-2.9-7.4-2.9-11.6-.1-12.8 9.8-23.5 22.5-24.6"/></svg>