<svg id="Layer_1" xmlns="http://www.w3.org/2000/svg" viewBox="0 0 1137.3 385.6"><style>.st0{opacity:.7}.st1{fill:#bd1622}.st1,.st2,.st3{stroke:#fff;stroke-width:4.5999;stroke-miterlimit:10}.st2{fill:#fff}.st3{fill:#93c01f}</style><g class="st0"><path class="st1" d="M2.3 18.5h35.4v16.2H2.3z"/><path class="st2" d="M37.7 18.5h35.4v16.2H37.7z"/><path class="st1" d="M73.1 18.5h35.4v16.2H73.1z"/><path class="st2" d="M108.6 18.5H144v16.2h-35.4z"/><path class="st1" d="M144 18.5h35.4v16.2H144z"/><path class="st2" d="M179.4 18.5h35.4v16.2h-35.4z"/><path class="st1" d="M214.8 18.5h35.4v16.2h-35.4z"/><path class="st2" d="M250.2 18.5h35.4v16.2h-35.4z"/><path class="st1" d="M285.6 18.5H321v16.2h-35.4z"/><path class="st2" d="M321.1 18.5h35.4v16.2h-35.4z"/><path class="st1" d="M356.5 18.5h35.4v16.2h-35.4z"/><path class="st2" d="M391.9 18.5h35.4v16.2h-35.4z"/><path class="st1" d="M427.3 18.5h35.4v16.2h-35.4z"/><path class="st2" d="M462.7 18.5h35.4v16.2h-35.4z"/><path class="st1" d="M498.1 18.5h35.4v16.2h-35.4z"/><path class="st2" d="M533.6 18.5H569v16.2h-35.4z"/><path class="st1" d="M568.3 18.5h35.4v16.2h-35.4z"/><path class="st2" d="M603.7 18.5h35.4v16.2h-35.4z"/><path class="st1" d="M639.2 18.5h35.4v16.2h-35.4z"/><path class="st2" d="M674.6 18.5H710v16.2h-35.4z"/><path class="st1" d="M710 18.5h35.4v16.2H710z"/><path class="st2" d="M745.4 18.5h35.4v16.2h-35.4z"/><path class="st1" d="M780.8 18.5h35.4v16.2h-35.4z"/><path class="st2" d="M816.2 18.5h35.4v16.2h-35.4z"/><path class="st1" d="M851.7 18.5h35.4v16.2h-35.4z"/><path class="st2" d="M887.1 18.5h35.4v16.2h-35.4z"/><path class="st1" d="M922.5 18.5h35.4v16.2h-35.4z"/><path class="st2" d="M957.9 18.5h35.4v16.2h-35.4z"/><path class="st1" d="M993.3 18.5h35.4v16.2h-35.4z"/><path class="st2" d="M1028.7 18.5h35.4v16.2h-35.4z"/><path class="st1" d="M1064.2 18.5h35.4v16.2h-35.4z"/><path class="st2" d="M1099.6 18.5h35.4v16.2h-35.4z"/><path class="st3" d="M2.3 2.3h1132v16.2H2.3z"/></g><g class="st0"><path class="st1" d="M2.3 351h35.4v16.2H2.3z"/><path class="st2" d="M37.7 351h35.4v16.2H37.7z"/><path class="st1" d="M73.1 351h35.4v16.2H73.1z"/><path class="st2" d="M108.6 351H144v16.2h-35.4z"/><path class="st1" d="M144 351h35.4v16.2H144z"/><path class="st2" d="M179.4 351h35.4v16.2h-35.4z"/><path class="st1" d="M214.8 351h35.4v16.2h-35.4z"/><path class="st2" d="M250.2 351h35.4v16.2h-35.4z"/><path class="st1" d="M285.6 351H321v16.2h-35.4z"/><path class="st2" d="M321.1 351h35.4v16.2h-35.4z"/><path class="st1" d="M356.5 351h35.4v16.2h-35.4z"/><path class="st2" d="M391.9 351h35.4v16.2h-35.4z"/><path class="st1" d="M427.3 351h35.4v16.2h-35.4z"/><path class="st2" d="M462.7 351h35.4v16.2h-35.4z"/><path class="st1" d="M498.1 351h35.4v16.2h-35.4z"/><path class="st2" d="M533.6 351H569v16.2h-35.4z"/><path class="st1" d="M568.3 351h35.4v16.2h-35.4z"/><path class="st2" d="M603.7 351h35.4v16.2h-35.4z"/><path class="st1" d="M639.2 351h35.4v16.2h-35.4z"/><path class="st2" d="M674.6 351H710v16.2h-35.4z"/><path class="st1" d="M710 351h35.4v16.2H710z"/><path class="st2" d="M745.4 351h35.4v16.2h-35.4z"/><path class="st1" d="M780.8 351h35.4v16.2h-35.4z"/><path class="st2" d="M816.2 351h35.4v16.2h-35.4z"/><path class="st1" d="M851.7 351h35.4v16.2h-35.4z"/><path class="st2" d="M887.1 351h35.4v16.2h-35.4z"/><path class="st1" d="M922.5 351h35.4v16.2h-35.4z"/><path class="st2" d="M957.9 351h35.4v16.2h-35.4z"/><path class="st1" d="M993.3 351h35.4v16.2h-35.4z"/><path class="st2" d="M1028.7 351h35.4v16.2h-35.4z"/><path class="st1" d="M1064.2 351h35.4v16.2h-35.4z"/><path class="st2" d="M1099.6 351h35.4v16.2h-35.4z"/><path class="st3" d="M2.3 367.2h1132v16.2H2.3z"/></g></svg>